Gatunek: Sensacyjny
Produkcja: USA / Wielka Brytania
Premiera: 26 października 2012 (Polska), 23 października 2012 (świat)
Reżyseria: Sam Mendes
Scenariusz: Neal Purvis / Robert Wade / John Logan

Po ataku na siedzibę MI6, M zostaje zmuszona do przeniesienia działalności do podziemnego centrum. Jej każdy krok śledzi nowy przewodniczący Komitetu Wywiadu i Bezpieczeństwa, Mallory. M może zaufać tylko Bondowi. Bez względu na konsekwencje 007 będzie musiał wytropić i zniszczyć zagadkowego przeciwnika. Z pomocą agentki Eve Bond podąża tropem tajemniczego i bezwzględnego Raoula Silvy. Z czasem zaczyna odkrywać motywy jego działań.

Obsada:

Daniel Craig ... James Bond
Judi Dench ... M
Javier Bardem ... Silva
Ralph Fiennes ... Gareth Mallory
Naomie Harris ... Eve
Bérénice Marlohe ... Sévérine (as Bérénice Lim Marlohe)
Albert Finney ... Kincade
Ben Whishaw ... Q
Rory Kinnear ... Tanner
Ola Rapace ... Patrice
Helen McCrory ... Clair Dowar MP
Nicholas Woodeson... Doctor Hall
Bill Buckhurst ... Ronson

Dane techniczne:

Subtitles External(SubRip): English,English (Hearing Impaired).
Subtitles External(SubRip): Polish,Romanian,Spanish,Swedish,Finnish.
Subtitles External(VobSub): Chinese,Danish,Estonian,Icelandic,Latvian.
Subtitles External(VobSub): Italian,Lithuanian,Norwegian,Russian.

Format : Matroska
Format version : Version 2
File size : 6.39 GiB
Duration : 2h 23mn
Overall bit rate : 6 393 Kbps
Writing application : mkvmerge v5.8.0 
Writing library : libebml v1.2.3 + libmatroska v1.3.0
Video #1
ID : 1
Format : AVC
Format/Info : Advanced Video Codec
Format profile : High@L4.1
Format settings, CABAC : Yes
Format settings, ReFrames : 6 frames
Codec ID : V_MPEG4/ISO/AVC
Duration : 2h 23mn
Bit rate : 4 890 Kbps
Width : 1 280 pixels
Height : 534 pixels
Display aspect ratio : 2.40:1
Frame rate mode : Constant
Frame rate : 23.976 fps
Color space : YUV
Chroma subsampling : 4:2:0
Bit depth : 8 bits
Scan type : Progressive
Bits/(Pixel*Frame) : 0.298
Stream size : 4.76 GiB (74%)
Writing library : x264 
Language : English
Default : Yes
Forced : No
Audio #2
ID : 2
Format : DTS
Format/Info : Digital Theater Systems
Mode : 16
Format settings, Endianness : Big
Codec ID : A_DTS
Duration : 2h 23mn
Bit rate mode : Constant
Bit rate : 1 509 Kbps
Channel(s) : 6 channels
Channel positions : Front: L C R, Side: L R, LFE
Sampling rate : 48.0 KHz
Bit depth : 24 bits
Compression mode : Lossy
Stream size : 1.51 GiB (24%)
Title : Skyfall 2012 DTS 5.1 Original
Language : English
Default : Yes
Forced : No